HIERARCHY
ROOT pelvis
{
  OFFSET 0 100 0
  CHANNELS 6 Xposition Yposition Zposition Zrotation Xrotation Yrotation
  JOINT pelvis_right_femur
  {
    OFFSET -10.78128 -3.44521 -0.5502486
    CHANNELS 3 Zrotation Xrotation Yrotation
    JOINT right_femur_tibia
    {
      OFFSET -0.8047443 -44.0398 -0.1307829
      CHANNELS 3 Zrotation Xrotation Yrotation
      JOINT right_tibia_foot
      {
        OFFSET 3.006224 -47.83518 -5
        CHANNELS 3 Zrotation Xrotation Yrotation
        End Site
        {
          OFFSET 0 -5 15
        }
      }
    }
  }
  JOINT pelvis_left_femur
  {
    OFFSET 10.78128 -3.44521 -0.5502486
    CHANNELS 3 Zrotation Xrotation Yrotation
    JOINT left_femur_tibia
    {
      OFFSET 0.8047443 -44.0398 -0.1307829
      CHANNELS 3 Zrotation Xrotation Yrotation
      JOINT left_tibia_foot
      {
        OFFSET -4.370144 -48.10324 -4.275266
        CHANNELS 3 Zrotation Xrotation Yrotation
        End Site
        {
          OFFSET 0 -5 15
        }
      }
    }
  }
  JOINT pelvis_spine1
  {
    OFFSET 0 6.468898 -3.129235
    CHANNELS 3 Zrotation Xrotation Yrotation
    JOINT spine1
    {
      OFFSET 0 23.15396 4.99043
      CHANNELS 3 Zrotation Xrotation Yrotation
      JOINT spine2
      {
        OFFSET 0 20.79997 -5.064912
        CHANNELS 3 Zrotation Xrotation Yrotation
        JOINT neck
        {
          OFFSET 0 14.38658 9.616178
          CHANNELS 3 Zrotation Xrotation Yrotation
          End Site
          {
            OFFSET 0 20 0
          }
        }
      }
      JOINT right_manubrium
      {
        OFFSET -5.722621 16.35077 3.967754
        CHANNELS 3 Zrotation Xrotation Yrotation
        JOINT right_clavicle
        {
          OFFSET -13.16364 1.694482 -4.693211
          CHANNELS 3 Zrotation Xrotation Yrotation
          JOINT right_humerus
          {
            OFFSET -28.5034 -0.3100689 -2.792744
            CHANNELS 3 Zrotation Xrotation Yrotation
            JOINT right_radius
            {
              OFFSET -25.15693 0.02248979 -1.271978
              CHANNELS 3 Zrotation Xrotation Yrotation
              End Site
              {
                OFFSET -15 0 0
              }
            }
          }
        }
      }
      JOINT left_manubrium
      {
        OFFSET 5.722621 16.35077 3.967754
        CHANNELS 3 Zrotation Xrotation Yrotation
        JOINT left_clavicle
        {
          OFFSET 13.16364 1.694482 -4.693211
          CHANNELS 3 Zrotation Xrotation Yrotation
          JOINT left_humerus
          {
            OFFSET 29.39168 -1.063119 -2.237045
            CHANNELS 3 Zrotation Xrotation Yrotation
            JOINT left_radius
            {
              OFFSET 24.59957 -0.9528479 0.9047498
              CHANNELS 3 Zrotation Xrotation Yrotation
              End Site
              {
                OFFSET 15 -0 -0
              }
            }
          }
        }
      }
    }
  }
}
MOTION
Frames: 7
Frame Time: 0.0416666666667
1325.163 96.04427 2780.252 5.341246 -2.886039 53.60213 2.65553 -23.38032 2.926169 -0 15.16004 -0 -1.710783 -5.936324 -10.63803 -4.018197 19.89391 -8.803294 -0 28.54842 -0 -7.468402 -16.54309 12.1777 -2.189676 0.1424733 1.460698 1.289755 7.764359 -7.521542 3.050757 23.00718 4.703653 1.393152 -15.44503 8.14799 1.816287 -11.07647 9.491526 91.31974 26.39043 -22.27748 -0 0 5.647991 -18.05038 14.11817 7.422663 6.342266 -21.18084 -4.115795 -79.78622 23.7445 0.003774868 0 0 -26.54771 3.364278 10.35258 8.845847
1330.434 96.18186 2784.965 5.044575 -3.245141 53.55868 3.840057 -20.26461 3.854825 -0 16.79969 -0 -1.2507 -4.936299 -10.08905 -3.723906 17.97198 -8.428756 -0 35.65789 -0 -7.672352 -13.31232 12.90749 -1.508246 -0.4308484 1.933559 1.563771 8.806944 -7.770822 2.540803 22.53939 5.008135 1.703072 -16.34754 7.639239 2.587367 -11.98942 10.14643 91.27898 26.74671 -22.82026 -0 0 5.669969 -18.35488 14.28207 7.955678 5.785947 -21.26877 -4.224273 -81.1132 23.59218 2.793064 0 0 -25.82204 2.567647 9.504781 10.15752
1335.621 96.75387 2789.612 6.026048 -4.314976 53.18949 4.412786 -15.96772 4.482428 -0 19.02419 -0 -0.8807417 -5.930013 -9.917216 -3.515274 15.58149 -8.100283 -0 43.82936 -0 -7.981623 -10.63043 14.09319 -1.082027 -0.4095772 2.408938 1.473733 9.370922 -7.370819 2.647549 22.95052 4.805895 1.58811 -15.84915 7.59611 2.63964 -12.23552 10.32729 91.01751 25.95592 -22.02344 -0 0 5.85658 -18.70452 14.27714 7.955746 5.200656 -20.74455 -4.269956 -82.26518 23.42211 4.182227 0 0 -23.64233 2.17528 9.497585 10.4189
1340.589 97.7173 2794.098 7.201143 -5.374632 52.53994 4.802096 -11.20556 5.13252 -0 20.96741 -0 -1.052758 -7.685282 -9.682686 -3.314044 11.84375 -7.983613 -0 51.14318 -0 -8.423648 -8.816861 15.24357 -0.8259792 0.1145393 3.062248 1.227833 9.515569 -6.525733 3.035203 23.62959 4.356659 1.397484 -15.11408 7.658595 2.419512 -12.49727 10.36285 90.19867 24.76266 -20.18784 -0 0 6.771977 -18.37473 13.68246 7.582402 4.611035 -19.75597 -4.168762 -83.79391 23.93937 5.882181 0 0 -20.80757 1.576092 9.682943 10.95607
1345.302 98.83265 2798.36 8.052047 -6.038105 51.73433 4.991654 -6.273732 5.636504 -0 21.78415 -0 -1.488581 -9.357935 -9.13588 -3.0283 6.331971 -7.757561 -0 55.62947 -0 -8.745787 -7.799034 16.21758 -0.697014 0.8542355 3.973091 0.9148432 9.534178 -5.538044 3.369327 24.13977 3.935082 1.329889 -14.66934 7.578561 2.151271 -13.26743 10.47465 88.86642 23.64275 -17.76725 -0 0 8.638707 -17.9744 12.72841 7.420903 4.148773 -18.69612 -4.018365 -85.71404 24.73599 8.50918 0 0 -18.15225 0.6967527 9.542791 12.0707
1349.839 99.80895 2802.389 8.350424 -6.182272 50.86622 4.969378 -1.406916 5.840005 -0 20.94893 -0 -1.749144 -10.64101 -8.144 -2.525125 -0.6531098 -7.138 -0 56.35583 -0 -8.748544 -7.294394 17.01605 -0.6468856 1.518476 5.095698 0.5775416 9.653162 -4.654136 3.446454 24.25285 3.76659 1.444655 -14.69948 7.330338 1.940649 -14.6643 10.74475 87.18629 23.00533 -15.1888 -0 0 11.29571 -18.25187 11.95449 7.902577 3.900659 -17.89107 -3.893335 -87.73547 25.20392 11.89714 0 0 -16.29942 -0.2287917 8.934571 13.46178
1354.328 100.3871 2806.227 8.159985 -5.915154 50.01051 4.732217 3.181547 5.740087 -0 18.93098 -0 -1.636874 -11.84566 -6.877789 -1.740906 -8.02922 -6.151045 -0 53.02137 -0 -8.405645 -7.159456 17.68949 -0.6610965 1.937728 6.216245 0.2373153 9.812236 -3.973158 3.288059 24.03153 3.827795 1.614122 -15.06216 7.025443 1.721378 -16.43794 11.06248 85.37719 22.83056 -12.6309 -0 0 14.3664 -19.28977 11.51213 8.992305 3.854018 -17.33591 -3.769661 -89.47288 25.19717 15.37858 0 0 -15.27024 -1.001864 8.059 14.74538
